<svg xmlns="http://www.w3.org/2000/svg" viewBox="0 0 96 96" role="img" aria-label="Jeeves 3 crest">
  <defs>
    <linearGradient id="brass" x1="0" x2="1" y1="0" y2="1">
      <stop offset="0" stop-color="#fff8e8"/>
      <stop offset="0.5" stop-color="#d8bd7a"/>
      <stop offset="1" stop-color="#9b7334"/>
    </linearGradient>
    <linearGradient id="blue" x1="0" x2="1" y1="0" y2="1">
      <stop offset="0" stop-color="#1f4d78"/>
      <stop offset="1" stop-color="#0b2038"/>
    </linearGradient>
  </defs>
  <circle cx="48" cy="48" r="44" fill="#0b2038"/>
  <circle cx="48" cy="48" r="38" fill="none" stroke="url(#brass)" stroke-width="3"/>
  <path d="M25 21h46l-4 33c-2 15-11 24-19 29-8-5-17-14-19-29L25 21Z" fill="#fff8e8" stroke="#b08a47" stroke-width="3"/>
  <path d="M33 29h30v11c0 6-5 11-11 11H33V29Z" fill="#6b2428"/>
  <path d="M33 51h33v7c0 7-6 13-13 13H33V51Z" fill="url(#blue)"/>
  <path d="M45 36h10v24c0 8-5 13-13 13-5 0-9-2-12-5l5-7c2 2 4 3 7 3 2 0 3-1 3-4V36Z" fill="#fff8e8"/>
  <path d="M28 20h40v8H28z" fill="url(#brass)"/>
  <circle cx="34" cy="24" r="2" fill="#493411"/>
  <circle cx="62" cy="24" r="2" fill="#493411"/>
</svg>
